<!DOCTYPE svg PUBLIC "-//W3C//DTD SVG 1.1//EN" "http://www.w3.org/Graphics/SVG/1.1/DTD/svg11.dtd">
<!-- Uploaded to: SVG Repo, www.svgrepo.com, Transformed by: SVG Repo Mixer Tools -->
<svg fill="#ffffff" width="800px" height="800px" viewBox="-9.6 -9.6 115.20 115.20" xmlns="http://www.w3.org/2000/svg" stroke="#ffffff">
<g id="SVGRepo_bgCarrier" stroke-width="0">
<rect x="-9.6" y="-9.6" width="115.20" height="115.20" rx="57.6" fill="#383b43" strokewidth="0"/>
</g>
<g id="SVGRepo_tracerCarrier" stroke-linecap="round" stroke-linejoin="round"/>
<g id="SVGRepo_iconCarrier"> <title/> <g> <path d="M94.2422,37.7578a5.9979,5.9979,0,0,0-8.4844,0l-2.61,2.61A36.0347,36.0347,0,0,0,48,12a35.55,35.55,0,0,0-21.6211,7.3594,5.9977,5.9977,0,0,0,7.2422,9.5625A23.6677,23.6677,0,0,1,48,24,23.957,23.957,0,0,1,70.6729,40.4766l-3.97-3.1641a5.9956,5.9956,0,1,0-7.4765,9.375l15.0351,12a5.99,5.99,0,0,0,7.98-.4453l12-12A5.9979,5.9979,0,0,0,94.2422,37.7578Z"/> <path d="M62.3789,67.0781A23.6675,23.6675,0,0,1,48,72,23.957,23.957,0,0,1,25.3271,55.5234l3.97,3.1641a5.9956,5.9956,0,1,0,7.4765-9.375l-15.0351-12a6.0071,6.0071,0,0,0-7.98.4453l-12,12a5.9994,5.9994,0,0,0,8.4844,8.4844l2.61-2.61A36.0347,36.0347,0,0,0,48,84a35.55,35.55,0,0,0,21.6211-7.3594,5.9977,5.9977,0,1,0-7.2422-9.5625Z"/> </g> </g>
</svg>